<!-- google-icon.svg -->
<svg width="24" height="24" viewBox="0 0 24 24" fill="none" xmlns="http://www.w3.org/2000/svg">
    <path d="M23.766 12.2764C23.766 11.4607 23.6999 10.6406 23.5588 9.83807H12.24V14.4591H18.7217C18.4528 15.9494 17.5885 17.2678 16.323 18.1056V21.1039H20.19C22.4608 19.0139 23.766 15.9274 23.766 12.2764Z" fill="#4285F4"/>
    <path d="M12.24 24.0008C15.4764 24.0008 18.2058 22.9382 20.1944 21.1039L16.3274 18.1055C15.2516 18.8375 13.8626 19.252 12.24 19.252C9.0568 19.252 6.3791 17.1399 5.3837 14.3003H1.3929V17.3912C3.4001 21.4434 7.5271 24.0008 12.24 24.0008Z" fill="#34A853"/>
    <path d="M5.3837 14.3003C4.9251 12.8099 4.9251 11.1961 5.3837 9.70575V6.61481H1.3929C-0.465 10.0056 -0.465 14.0004 1.3929 17.3912L5.3837 14.3003Z" fill="#FBBC04"/>
    <path d="M12.24 4.74966C13.9508 4.7232 15.6043 5.36697 16.8433 6.54867L20.2694 3.12262C18.1 1.0855 15.2207 -0.034466 12.24 0.000808666C7.5271 0.000808666 3.4001 2.55822 1.3929 6.61481L5.3837 9.70575C6.3791 6.86173 9.0568 4.74966 12.24 4.74966Z" fill="#EA4335"/>
</svg>